<?xml version="1.0" encoding="UTF-8" standalone="no"?>
<!DOCTYPE svg PUBLIC "-//W3C//DTD SVG 1.1//EN" "http://www.w3.org/Graphics/SVG/1.1/DTD/svg11.dtd">
<svg width="100%" height="100%" viewBox="0 0 600 600" version="1.1" xmlns="http://www.w3.org/2000/svg" xmlns:xlink="http://www.w3.org/1999/xlink" xml:space="preserve" xmlns:serif="http://www.serif.com/" style="fill-rule:evenodd;clip-rule:evenodd;stroke-linejoin:round;stroke-miterlimit:2;">
    <g transform="matrix(1.16577,0,0,1.16577,-17.2783,-13.7218)">
        <path d="M232.258,300.262C236.637,298.072 238.863,303.728 240.628,305.493C240.802,305.667 242.615,305.457 242.72,305.493C243.856,305.871 245.863,307.961 247.428,308.631C251.749,310.483 256.669,312.772 261.029,313.862C262.722,314.285 262.468,316.544 263.121,317.524C264.578,319.709 267.417,323.856 269.398,324.847C273.127,326.712 279.207,330.471 281.953,333.217C285.106,336.37 290.208,338.584 294.507,340.017C297.732,341.092 302.621,345.382 305.493,346.818C307.095,347.619 310.164,346.538 311.77,347.341C312.583,347.748 313.435,348.91 314.385,348.91C314.683,348.91 317.157,349.8 316.478,350.48C315.26,351.697 311.953,351.876 310.724,353.095C307.281,356.509 196.687,433.828 196.687,432.607C196.687,424.647 231.735,306.977 231.735,301.308"/>
        <path d="M225.887,297.719C225.243,298.763 224.873,299.992 224.873,301.308C224.873,304.064 216.124,333.981 207.605,364.238C198.606,396.203 189.825,428.519 189.825,432.607C189.825,435.208 190.973,437.035 192.849,438.303C193.806,438.95 195.375,439.767 197.754,439.404C198.109,439.35 200.295,438.624 203.527,436.523C220.924,425.215 305.175,366.156 314.75,358.635C315.303,358.464 317.103,357.893 317.974,357.525C319.349,356.942 320.485,356.178 321.33,355.332C324.019,352.644 324.116,349.773 322.657,346.927C322.069,345.779 320.736,344.269 318.887,343.311C318.19,342.95 317.435,342.68 316.742,342.485C316.188,342.068 315.33,341.448 314.839,341.203C313.686,340.627 312.307,340.267 310.772,340.184C309.98,340.141 308.529,340.204 307.764,340.244C304.617,338.428 299.859,334.568 296.678,333.507C293.325,332.39 289.263,330.823 286.805,328.365C283.743,325.302 277.103,321.076 272.812,318.886C272.459,318.45 269.945,315.332 268.951,313.888C268.03,312.002 265.738,307.966 262.693,307.205C258.712,306.209 254.243,304.091 250.283,302.39C250.104,302.253 248.657,301.156 247.986,300.666C246.837,299.828 245.737,299.265 244.89,298.982C244.84,298.966 244.511,298.935 244.066,298.901C243.124,297.644 242.026,296.156 240.721,295.171C237.602,292.817 233.855,291.791 229.189,294.124C227.623,294.907 226.487,296.209 225.887,297.719ZM236.457,310.943C233.311,323.293 227.12,345.569 220.817,367.958C215.593,386.512 210.287,405.15 206.963,417.692C232.215,400.51 284.329,364.083 300.84,352.052C299.445,351.189 297.83,350.045 296.202,348.908C294.818,347.94 293.463,346.903 292.337,346.528C287.089,344.778 280.949,341.918 277.1,338.07C274.754,335.723 269.515,332.578 266.329,330.985C263.629,329.635 259.396,324.308 257.411,321.331C257.181,320.984 256.915,320.374 256.673,319.741C252.712,318.457 248.501,316.557 244.725,314.939C243.659,314.482 241.73,313.117 240.609,312.292C239.847,312.261 239.118,312.211 238.84,312.133C237.817,311.845 237.042,311.398 236.457,310.943ZM315.437,358.074C315.482,358.037 315.523,358.001 315.556,357.968L315.437,358.074ZM312.075,355.188C312.229,355.301 312.394,355.405 312.571,355.496C313.284,355.866 314.202,355.773 314.385,355.773C313.748,355.773 312.919,355.529 312.075,355.188ZM314.609,342.062C314.53,342.052 314.455,342.048 314.385,342.048L314.609,342.062Z"/>
        <path d="M322.006,333.95C321.798,333.821 321.588,333.677 321.588,333.677C321.588,333.677 323.904,336.488 325.168,337.736C326.675,339.223 328.283,340.191 329.682,340.636C332.688,341.591 335.523,341.139 338.07,338.593C340.748,335.915 340.748,331.566 338.07,328.888C336.907,327.725 335.43,327.068 333.912,326.915C333.278,326.175 332.474,325.245 331.964,324.684C330.731,323.326 329.468,322.362 328.44,321.848C326.382,320.82 291.57,294.433 286.675,291.328C284.933,290.223 283.439,288.557 281.783,287.035C279.112,284.579 276.18,282.385 272.615,281.197C264.514,278.497 256.378,273.351 250.188,267.161C247.51,264.483 243.161,264.483 240.483,267.161C237.805,269.84 237.805,274.188 240.483,276.866C248.148,284.531 258.243,290.873 268.275,294.217C270.45,294.942 271.99,296.651 273.587,298.162C275.458,299.934 277.312,301.642 279.323,302.918C284.191,306.006 317.976,331.403 322.006,333.95ZM322.007,333.951C322.116,334.02 322.225,334.086 322.302,334.124L322.007,333.951ZM328.571,328.692C328.501,328.754 328.433,328.82 328.365,328.888L328.571,328.692Z"/>
        <path d="M262.075,253.182C271.781,258.035 281.711,264.355 290.846,270.445C292.102,271.282 329.137,300.854 330.602,301.831C333.974,304.079 336.512,307.663 339.494,309.154C340.968,309.891 342.676,312.271 344.725,311.247C347.754,309.732 346.99,303.055 348.387,300.262C350.81,295.417 357.5,292.195 360.942,288.753C364.443,285.252 384.587,254.582 386.574,252.659C387.4,251.86 389,250.946 389.712,249.52C391.872,245.202 394.153,241.301 396.513,238.012C397.246,236.99 397.695,234.215 398.605,233.304C409.849,222.06 419.701,206.806 426.853,192.502C430.896,184.416 435.044,173.326 440.976,167.393C442.857,165.512 447.11,161.927 448.3,159.547C448.649,158.849 449.898,158.006 449.346,157.454C447.745,155.854 443.79,157.13 442.546,155.885C440.469,153.808 437.603,152.764 435.222,151.177C428.717,146.84 407.589,129.616 402.267,126.068C397.296,122.754 390.473,118.983 386.574,115.083C384.659,113.168 382.42,115.05 381.343,112.467C379.663,108.44 372.622,107.233 370.881,104.621C370.465,103.997 367.32,102.951 367.219,103.051C366.515,103.755 360.223,113.709 359.372,114.56C357.122,116.81 354.398,121.893 353.095,124.499C351.315,128.059 333.589,152.897 329.555,156.931C325.62,160.866 319.366,166.847 316.478,172.624C314.069,177.441 306.413,181.77 303.4,187.794C297.312,199.972 288.971,211.122 283.522,222.842C281.149,227.946 275.139,230.715 273.06,234.874C270.18,240.634 268.404,246.853 263.644,251.613"/>
        <path d="M258.07,247.611C257.193,248.238 256.452,249.082 255.937,250.113C254.243,253.501 255.618,257.626 259.006,259.32C268.465,264.05 278.137,270.219 287.039,276.155C288.296,276.992 325.33,306.564 326.795,307.541C328.515,308.688 329.945,310.284 331.389,311.619C332.95,313.062 334.535,314.302 336.176,315.159C336.478,315.391 338.315,316.786 339.369,317.31C341.993,318.614 344.796,318.884 347.794,317.385C350.217,316.173 352.055,313.977 353.086,310.94C353.574,309.503 353.885,307.816 354.124,306.129C354.263,305.15 354.55,303.502 354.607,303.178C355.41,301.697 356.958,300.575 358.453,299.431C361.116,297.392 363.889,295.51 365.794,293.606C369.287,290.113 389.365,259.508 391.346,257.59C392.599,256.378 394.77,254.751 395.85,252.589C397.834,248.622 399.921,245.034 402.088,242.013C402.679,241.189 403.717,238.517 404.099,237.506C415.577,225.833 425.659,210.235 432.991,195.571C436.727,188.098 440.346,177.729 445.829,172.246C448.026,170.048 452.721,165.741 454.303,162.871C454.889,161.981 455.956,160.286 456.149,159.471C456.736,156.979 456.26,154.664 454.199,152.602C453.032,151.436 451.564,150.605 449.84,150.145C448.832,149.877 446.962,149.74 445.828,149.679C443.697,148.066 441.213,146.923 439.029,145.467C432.524,141.13 411.396,123.906 406.073,120.358C401.453,117.278 395.051,113.856 391.426,110.23C390.102,108.906 388.046,108.116 386.484,107.676C385.121,105.723 383.146,104.083 380.853,102.766C379.346,101.902 376.739,100.545 376.17,100.251C375.677,99.653 374.952,98.964 373.949,98.364C372.416,97.446 369.331,96.435 368.507,96.292C364.887,95.665 362.926,97.64 362.366,98.199C361.684,98.881 354.25,109.985 354.25,109.985C354.25,109.985 354.469,109.758 354.52,109.707C351.849,112.378 348.503,118.337 346.957,121.43C345.275,124.795 328.515,148.266 324.703,152.079C320.345,156.436 313.539,163.158 310.34,169.555C309.438,171.358 307.404,172.933 305.464,174.757C302.28,177.752 299.113,181.024 297.262,184.725C291.144,196.961 282.774,208.173 277.299,219.949C276.263,222.179 274.099,223.639 272.345,225.231C270.065,227.301 268.103,229.442 266.922,231.805C264.369,236.911 263.011,242.541 258.792,246.76C258.524,247.028 258.283,247.312 258.07,247.611ZM369.311,112.155C367.194,115.291 364.688,118.949 364.225,119.412C362.394,121.243 360.293,125.448 359.233,127.568C357.355,131.323 338.663,157.528 334.408,161.784C330.895,165.296 325.194,170.536 322.616,175.693C321.345,178.234 319.08,180.765 316.429,183.284C313.979,185.613 311.007,187.925 309.538,190.863C303.479,202.982 295.167,214.072 289.745,225.735C288.426,228.572 286.379,230.952 284.116,233.082C282.299,234.792 280.126,236.087 279.198,237.943C277,242.339 275.279,246.918 272.708,251.07C280.187,255.272 287.65,260.066 294.652,264.735C295.909,265.572 332.943,295.144 334.408,296.121C336.426,297.466 338.222,299.18 339.932,300.812C340.263,301.128 340.581,301.447 340.897,301.748C341.202,299.969 341.654,298.383 342.249,297.193C343.619,294.452 345.861,291.998 348.482,289.825C351.09,287.664 354.152,285.838 356.089,283.901C359.599,280.391 379.809,249.656 381.801,247.728C382.236,247.307 383.401,246.355 383.779,246.049C385.967,241.708 388.278,237.772 390.661,234.407C391.046,233.464 392.711,229.493 393.753,228.452C404.499,217.706 413.88,203.103 420.715,189.433C425.065,180.733 429.741,168.924 436.124,162.541C436.572,162.093 437.206,161.541 437.9,160.937L437.693,160.737C435.936,158.98 433.429,158.229 431.416,156.887C424.911,152.55 403.783,135.326 398.46,131.778C393.461,128.445 386.764,124.605 382.51,120.69C380.67,120.221 376.794,118.858 375.167,115.454C374.952,115.297 374.263,114.804 373.832,114.563C372.653,113.905 371.405,113.328 370.318,112.738C369.97,112.549 369.634,112.355 369.311,112.155Z"/>
        <path d="M382.784,89.591C387.021,93.609 404.666,108.888 411.538,113.469C415.536,116.134 431.034,125.892 434.246,127.498C436.612,128.681 443.939,135.933 450.254,140.124C454.462,142.917 458.535,144.439 461.378,144.439C465.165,144.439 468.24,141.364 468.24,137.576C468.24,133.878 465.308,130.859 461.644,130.721C461.317,130.551 457.602,128.606 455.289,126.878C449.094,122.248 442.639,116.35 440.384,115.222C437.377,113.719 422.893,104.544 419.151,102.049C412.443,97.578 394.701,82.119 391.949,79.367C390.489,77.907 388.689,76.964 386.674,76.401C386.054,76.228 385.091,76.023 384.316,75.869C383.007,73.302 380.155,71.742 377.153,72.207C373.411,72.787 370.843,76.297 371.422,80.039C372.225,85.221 375.096,87.443 378.747,88.654C379.834,89.015 382.014,89.445 382.784,89.591Z"/>
        <path d="M394.943,56.495C401.282,59.664 469.476,110.762 473.932,112.99C474.528,113.288 475.539,115.568 476.548,114.56C478.722,112.385 487.26,96.001 490.148,93.112C490.642,92.619 491.389,83.891 490.671,83.173C486.649,79.152 417.592,34.525 416.391,34.525C408.539,34.525 405.188,39.82 401.744,44.987C400.635,46.65 397.559,49.206 397.559,50.741"/>
        <path d="M390.706,51.098C389.93,51.704 389.275,52.488 388.805,53.426C387.112,56.814 388.487,60.939 391.874,62.633C397.875,65.634 459.326,111.599 469.632,118.37C470.301,119.073 471.452,120.225 472.171,120.639C473.638,121.483 475.174,121.785 476.688,121.647C478.217,121.507 479.856,120.956 481.4,119.412C482.436,118.376 484.816,114.716 487.362,110.375C490.226,105.491 493.452,99.514 495.001,97.965C495.483,97.483 496.259,96.588 496.767,95.057C497.192,93.779 497.825,88.868 497.831,85.555C497.834,83.573 497.553,81.977 497.286,81.187C496.826,79.828 496.126,78.923 495.524,78.321C491.834,74.631 434.52,37.302 422.187,29.895C418.959,27.957 416.679,27.662 416.391,27.662C405.732,27.662 400.71,34.166 396.034,41.18C395.283,42.307 393.586,43.845 392.643,45.183C391.238,47.178 390.696,49.191 390.696,50.741C390.696,50.861 390.699,50.98 390.706,51.098ZM414.885,41.523C410.969,42.247 409.438,45.816 407.454,48.794C406.794,49.783 404.786,52.055 404.097,52.826C403.968,53.232 403.802,53.621 403.603,53.991C419.683,65.102 462.979,97.344 474.424,105.189C475.333,103.705 476.316,102.076 477.157,100.638C479.485,96.661 481.937,92.673 483.717,90.211L483.972,86.555C473.557,78.855 426.02,48.207 415.121,41.662L414.885,41.523Z"/>
        <path d="M164.86,470.698C164.05,470.668 151.284,470.208 148.561,470.208L124.499,470.208C120.972,470.208 115.827,469.549 112.372,470.413C93.681,475.086 73.087,475.439 53.357,475.439C49.569,475.439 46.494,478.514 46.494,482.302C46.494,486.089 49.569,489.164 53.357,489.164C74.204,489.164 95.952,488.665 115.701,483.728C118.208,483.101 121.94,483.933 124.499,483.933L148.561,483.933C150.944,483.933 157.827,484.657 162.763,484.584C166.036,484.535 168.739,483.991 170.243,483.311C170.555,483.281 175.647,482.807 177.237,483.205C185.225,485.202 191.258,488.044 198.326,491.578C201.548,493.189 210.456,500.021 211.712,501.278C215.095,504.661 222.276,507.215 226.574,509.364C227.929,510.041 229.878,510.508 232.133,510.556C234.659,510.609 237.884,510.088 239.582,510.088C250.143,510.088 260.691,508.654 269.999,505.551C270.992,505.22 272.295,505.386 273.704,505.505C276.107,505.709 278.698,506.125 281.146,506.394C286.012,506.929 290.462,506.644 293.392,505.179C298.036,502.857 304.295,503.14 309.454,502.108C311.011,501.797 313.643,502.36 315.713,502.28C318.046,502.189 320.053,501.629 321.5,500.787C322.416,500.253 323.501,500.609 324.514,500.541C326.856,500.382 329.124,499.941 331.23,498.811C332.096,498.347 333.09,498.646 334.063,498.618C336.086,498.558 338.115,498.365 340.095,497.705C347.871,495.113 356.763,496.174 364.698,494.19C374.057,491.851 384.849,485.632 396.384,484.968C400.165,484.75 403.058,481.504 402.841,477.723C402.623,473.941 399.377,471.048 395.595,471.266C383.17,471.981 371.451,478.355 361.37,480.875C353.102,482.942 343.858,481.983 335.755,484.684C334.337,485.157 332.842,484.892 331.419,484.979C329.091,485.12 326.854,485.584 324.742,486.716C323.749,487.249 322.577,486.89 321.471,486.975C319.345,487.138 317.277,487.557 315.327,488.532C314.217,488.48 308.73,488.257 306.762,488.65C300.464,489.91 292.925,490.068 287.254,492.903C286.833,493.114 286.252,492.98 285.617,492.969C283.959,492.941 282.11,492.699 280.239,492.456C274.834,491.755 269.309,491.314 265.659,492.531C257.682,495.19 248.633,496.363 239.582,496.363C237.995,496.363 232.976,496.736 232.117,496.801C230.254,495.917 227.9,494.999 225.627,493.974C224.014,493.246 222.395,492.55 221.417,491.573C219.827,489.982 208.543,481.342 204.464,479.302C196.463,475.302 189.608,472.151 180.566,469.89C176.832,468.956 168.498,469.256 164.86,470.698Z"/>
    </g>
</svg>
